<svg width="97" height="107" viewBox="0 0 97 107" fill="none" xmlns="http://www.w3.org/2000/svg">
<path d="M29.4833 102.527C23.6028 99.9896 18.4875 96.5458 14.1375 92.1958C9.7875 87.8458 6.34375 82.7306 3.80625 76.85C1.26875 70.9694 0 64.6861 0 58C0 48.8167 2.39653 40.3382 7.18958 32.5646C11.9826 24.791 18.4875 18.85 26.7042 14.7417C26.7847 16.2722 26.9458 17.8229 27.1875 19.3938C27.4292 20.9646 27.8319 22.7972 28.3958 24.8917C22.5958 28.4361 18.0243 33.1285 14.6812 38.9688C11.3382 44.809 9.66667 51.1528 9.66667 58C9.66667 68.7944 13.4125 77.9375 20.9042 85.4292C28.3958 92.9208 37.5389 96.6667 48.3333 96.6667C59.1278 96.6667 68.2708 92.9208 75.7625 85.4292C83.2542 77.9375 87 68.7944 87 58C87 51.1528 85.3285 44.7889 81.9854 38.9083C78.6424 33.0278 74.0306 28.3153 68.15 24.7708C68.7139 22.6764 69.1167 20.8438 69.3583 19.2729C69.6 17.7021 69.8014 16.1917 69.9625 14.7417C78.1792 18.85 84.684 24.7708 89.4771 32.5042C94.2701 40.2375 96.6667 48.7361 96.6667 58C96.6667 64.6861 95.3979 70.9694 92.8604 76.85C90.3229 82.7306 86.8792 87.8458 82.5292 92.1958C78.1792 96.5458 73.0639 99.9896 67.1833 102.527C61.3028 105.065 55.0194 106.333 48.3333 106.333C41.6472 106.333 35.3639 105.065 29.4833 102.527ZM27.7917 78.5417C22.1528 72.9028 19.3333 66.0556 19.3333 58C19.3333 53.3278 20.3604 48.9375 22.4146 44.8292C24.4688 40.7208 27.3889 37.2972 31.175 34.5583C31.5778 35.7667 32.0208 37.1562 32.5042 38.7271C32.9875 40.2979 33.6319 42.2514 34.4375 44.5875C32.6653 46.4403 31.316 48.4944 30.3896 50.75C29.4632 53.0056 29 55.4222 29 58C29 63.3167 30.8931 67.8681 34.6792 71.6542C38.4653 75.4403 43.0167 77.3333 48.3333 77.3333C53.65 77.3333 58.2014 75.4403 61.9875 71.6542C65.7736 67.8681 67.6667 63.3167 67.6667 58C67.6667 55.4222 67.2035 53.0056 66.2771 50.75C65.3507 48.4944 64.0014 46.4403 62.2292 44.5875C62.8736 42.6542 63.4576 40.8618 63.9812 39.2104C64.5049 37.559 64.9681 36.0083 65.3708 34.5583C69.1569 37.2972 72.0972 40.7208 74.1917 44.8292C76.2861 48.9375 77.3333 53.3278 77.3333 58C77.3333 66.0556 74.5139 72.9028 68.875 78.5417C63.2361 84.1806 56.3889 87 48.3333 87C40.2778 87 33.4306 84.1806 27.7917 78.5417ZM43.5 41.0833C40.5194 32.0611 38.566 25.7174 37.6396 22.0521C36.7132 18.3868 36.25 15.0639 36.25 12.0833C36.25 8.7 37.4181 5.84028 39.7542 3.50417C42.0903 1.16806 44.95 0 48.3333 0C51.7167 0 54.5764 1.16806 56.9125 3.50417C59.2486 5.84028 60.4167 8.7 60.4167 12.0833C60.4167 15.0639 59.9535 18.3868 59.0271 22.0521C58.1007 25.7174 56.1472 32.0611 53.1667 41.0833H43.5ZM41.5062 64.8271C39.6132 62.934 38.6667 60.6583 38.6667 58C38.6667 55.3417 39.6132 53.066 41.5062 51.1729C43.3993 49.2799 45.675 48.3333 48.3333 48.3333C50.9917 48.3333 53.2674 49.2799 55.1604 51.1729C57.0535 53.066 58 55.3417 58 58C58 60.6583 57.0535 62.934 55.1604 64.8271C53.2674 66.7201 50.9917 67.6667 48.3333 67.6667C45.675 67.6667 43.3993 66.7201 41.5062 64.8271Z" fill="#5B5959"/>
</svg>
