<svg width="78" height="97" viewBox="0 0 78 97" fill="none" xmlns="http://www.w3.org/2000/svg">
<path d="M38.6667 96.6667C27.4694 93.8472 18.2257 87.4229 10.9354 77.3937C3.64514 67.3646 0 56.2278 0 43.9833V14.5L38.6667 0L77.3333 14.5V43.9833C77.3333 50.8306 76.1653 57.416 73.8292 63.7396C71.4931 70.0632 68.15 75.6417 63.8 80.475L48.3333 65.0083C46.8833 65.8944 45.3326 66.559 43.6813 67.0021C42.0299 67.4451 40.3583 67.6667 38.6667 67.6667C33.35 67.6667 28.7986 65.7736 25.0125 61.9875C21.2264 58.2014 19.3333 53.65 19.3333 48.3333C19.3333 43.0167 21.2264 38.4653 25.0125 34.6792C28.7986 30.8931 33.35 29 38.6667 29C43.9833 29 48.5347 30.8931 52.3208 34.6792C56.1069 38.4653 58 43.0167 58 48.3333C58 50.1056 57.7785 51.8174 57.3354 53.4688C56.8924 55.1201 56.2278 56.7111 55.3417 58.2417L62.5917 65.4917C64.2028 62.1889 65.4514 58.725 66.3375 55.1C67.2236 51.475 67.6667 47.7694 67.6667 43.9833V21.1458L38.6667 10.2708L9.66667 21.1458V43.9833C9.66667 53.7306 12.4056 62.5917 17.8833 70.5667C23.3611 78.5417 30.2889 83.8583 38.6667 86.5167C40.7611 85.8722 42.7549 85.0465 44.6479 84.0396C46.541 83.0326 48.4139 81.8444 50.2667 80.475L57.0333 87.2417C54.375 89.4167 51.4951 91.3097 48.3938 92.9208C45.2924 94.5319 42.05 95.7806 38.6667 96.6667ZM45.4938 55.1604C47.3868 53.2674 48.3333 50.9917 48.3333 48.3333C48.3333 45.675 47.3868 43.3993 45.4938 41.5062C43.6007 39.6132 41.325 38.6667 38.6667 38.6667C36.0083 38.6667 33.7326 39.6132 31.8396 41.5062C29.9465 43.3993 29 45.675 29 48.3333C29 50.9917 29.9465 53.2674 31.8396 55.1604C33.7326 57.0535 36.0083 58 38.6667 58C41.325 58 43.6007 57.0535 45.4938 55.1604Z" fill="#5B5959"/>
</svg>
