<svg width="92" height="97" viewBox="0 0 92 97" fill="none" xmlns="http://www.w3.org/2000/svg">
<path d="M43.5 96.6667V62.8333C43.5 60.175 44.4465 57.8993 46.3396 56.0062C48.2326 54.1132 50.5083 53.1667 53.1667 53.1667H82.1667C84.825 53.1667 87.1007 54.1132 88.9938 56.0062C90.8868 57.8993 91.8333 60.175 91.8333 62.8333V96.6667H82.1667V62.8333H72.5V87H62.8333V62.8333H53.1667V96.6667H43.5ZM9.66667 96.6667C7.00833 96.6667 4.73264 95.7201 2.83958 93.8271C0.946528 91.934 0 89.6583 0 87V19.3333C0 16.675 0.946528 14.3993 2.83958 12.5062C4.73264 10.6132 7.00833 9.66667 9.66667 9.66667H29.8458C30.7319 6.84722 32.4639 4.53125 35.0417 2.71875C37.6194 0.90625 40.4389 0 43.5 0C46.7222 0 49.6021 0.90625 52.1396 2.71875C54.6771 4.53125 56.3889 6.84722 57.275 9.66667H77.3333C79.9917 9.66667 82.2674 10.6132 84.1604 12.5062C86.0535 14.3993 87 16.675 87 19.3333V43.5H77.3333V19.3333H67.6667V33.8333H19.3333V19.3333H9.66667V87H33.8333V96.6667H9.66667ZM46.9438 17.9438C47.8701 17.0174 48.3333 15.8694 48.3333 14.5C48.3333 13.1306 47.8701 11.9826 46.9438 11.0562C46.0174 10.1299 44.8694 9.66667 43.5 9.66667C42.1306 9.66667 40.9826 10.1299 40.0563 11.0562C39.1299 11.9826 38.6667 13.1306 38.6667 14.5C38.6667 15.8694 39.1299 17.0174 40.0563 17.9438C40.9826 18.8701 42.1306 19.3333 43.5 19.3333C44.8694 19.3333 46.0174 18.8701 46.9438 17.9438Z" fill="#5B5959"/>
</svg>
